<svg width="28" height="19" viewBox="0 0 28 19" fill="none" xmlns="http://www.w3.org/2000/svg">
<path d="M23.1909 0.76817L3.86063 16.9882C3.50494 17.2866 3.45855 17.8175 3.75696 18.1731C4.05542 18.5288 4.5863 18.5752 4.94194 18.2768L24.2722 2.05682C24.6279 1.75836 24.6743 1.22748 24.3758 0.871842C24.0774 0.516107 23.5466 0.46971 23.1909 0.76817Z" fill="black"/>
<path d="M3.6451 1.97966L22.9782 18.202C23.3339 18.5005 23.8645 18.4545 24.1625 18.0993C24.4606 17.7441 24.4138 17.2135 24.0581 16.9151L4.72499 0.69271C4.3693 0.394251 3.83869 0.440232 3.54062 0.795455C3.24256 1.15068 3.28941 1.68121 3.6451 1.97966Z" fill="black"/>
</svg>
