<svg width="44" height="44" viewBox="0 0 44 44" fill="none" xmlns="http://www.w3.org/2000/svg">
<path d="M24.5849 22.0001L32.4682 14.1351C32.8134 13.7898 33.0074 13.3216 33.0074 12.8334C33.0074 12.3452 32.8134 11.8769 32.4682 11.5317C32.123 11.1865 31.6548 10.9926 31.1666 10.9926C30.6783 10.9926 30.2101 11.1865 29.8649 11.5317L21.9999 19.4151L14.1349 11.5317C13.7897 11.1865 13.3214 10.9926 12.8332 10.9926C12.345 10.9926 11.8768 11.1865 11.5316 11.5317C11.1863 11.8769 10.9924 12.3452 10.9924 12.8334C10.9924 13.3216 11.1863 13.7898 11.5316 14.1351L19.4149 22.0001L11.5316 29.8651C11.3597 30.0355 11.2233 30.2383 11.1303 30.4617C11.0372 30.6851 10.9893 30.9247 10.9893 31.1667C10.9893 31.4087 11.0372 31.6484 11.1303 31.8718C11.2233 32.0952 11.3597 32.298 11.5316 32.4684C11.702 32.6402 11.9048 32.7766 12.1282 32.8697C12.3516 32.9628 12.5912 33.0107 12.8332 33.0107C13.0752 33.0107 13.3149 32.9628 13.5383 32.8697C13.7617 32.7766 13.9645 32.6402 14.1349 32.4684L21.9999 24.5851L29.8649 32.4684C30.0353 32.6402 30.2381 32.7766 30.4615 32.8697C30.6849 32.9628 30.9245 33.0107 31.1666 33.0107C31.4086 33.0107 31.6482 32.9628 31.8716 32.8697C32.095 32.7766 32.2978 32.6402 32.4682 32.4684C32.6401 32.298 32.7764 32.0952 32.8695 31.8718C32.9626 31.6484 33.0105 31.4087 33.0105 31.1667C33.0105 30.9247 32.9626 30.6851 32.8695 30.4617C32.7764 30.2383 32.6401 30.0355 32.4682 29.8651L24.5849 22.0001Z" fill="white"/>
</svg>
